solid Mesh
  facet normal 0.000000 -1.000000 0.000000
    outer loop
      vertex -10.000000 -290.500000 0.000000
      vertex -10.000000 -290.500000 -65.000000
      vertex 10.000000 -290.500000 0.000000
    endloop
  endfacet
  facet normal 0.000000 -1.000000 -0.000000
    outer loop
      vertex 10.000000 -290.500000 0.000000
      vertex -10.000000 -290.500000 -65.000000
      vertex 10.000000 -290.500000 -65.000000
    endloop
  endfacet
  facet normal 0.000000 -0.000000 -1.000000
    outer loop
      vertex -32.000000 -25.500000 -65.000000
      vertex -10.000000 -50.500000 -65.000000
      vertex -252.000000 -50.500000 -65.000000
    endloop
  endfacet
  facet normal -0.000000 0.000000 -1.000000
    outer loop
      vertex -32.000000 -25.500000 -65.000000
      vertex -252.000000 -50.500000 -65.000000
      vertex -252.000000 -25.500000 -65.000000
    endloop
  endfacet
  facet normal -0.000000 -0.000000 -1.000000
    outer loop
      vertex -12.500000 -34.500000 -65.000000
      vertex -10.000000 -50.500000 -65.000000
      vertex -32.000000 -25.500000 -65.000000
    endloop
  endfacet
  facet normal 0.000000 -0.000000 -1.000000
    outer loop
      vertex 10.000000 -50.500000 -65.000000
      vertex 10.000000 -290.500000 -65.000000
      vertex -10.000000 -290.500000 -65.000000
    endloop
  endfacet
  facet normal -0.000000 0.000000 -1.000000
    outer loop
      vertex 10.000000 -50.500000 -65.000000
      vertex -10.000000 -290.500000 -65.000000
      vertex -10.000000 -50.500000 -65.000000
    endloop
  endfacet
  facet normal 0.000000 0.000000 -1.000000
    outer loop
      vertex 12.500000 -34.500000 -65.000000
      vertex 10.000000 -50.500000 -65.000000
      vertex -10.000000 -50.500000 -65.000000
    endloop
  endfacet
  facet normal -0.000000 0.000000 -1.000000
    outer loop
      vertex 12.500000 -34.500000 -65.000000
      vertex -10.000000 -50.500000 -65.000000
      vertex -12.500000 -34.500000 -65.000000
    endloop
  endfacet
  facet normal 0.000000 0.000000 -1.000000
    outer loop
      vertex -32.000000 24.500000 -65.000000
      vertex -252.000000 24.500000 -65.000000
      vertex -252.000000 49.500000 -65.000000
    endloop
  endfacet
  facet normal 0.000000 0.000000 -1.000000
    outer loop
      vertex -32.000000 24.500000 -65.000000
      vertex -12.500000 -34.500000 -65.000000
      vertex -32.000000 -25.500000 -65.000000
    endloop
  endfacet
  facet normal 0.000000 0.000000 -1.000000
    outer loop
      vertex 33.000000 -25.500000 -65.000000
      vertex 10.000000 -50.500000 -65.000000
      vertex 12.500000 -34.500000 -65.000000
    endloop
  endfacet
  facet normal 0.000000 -0.000000 -1.000000
    outer loop
      vertex -12.500000 35.500000 -65.000000
      vertex -12.500000 -34.500000 -65.000000
      vertex -32.000000 24.500000 -65.000000
    endloop
  endfacet
  facet normal -0.000000 0.000000 -1.000000
    outer loop
      vertex -10.000000 49.500000 -65.000000
      vertex -32.000000 24.500000 -65.000000
      vertex -252.000000 49.500000 -65.000000
    endloop
  endfacet
  facet normal 0.000000 0.000000 -1.000000
    outer loop
      vertex -10.000000 49.500000 -65.000000
      vertex -12.500000 35.500000 -65.000000
      vertex -32.000000 24.500000 -65.000000
    endloop
  endfacet
  facet normal -0.000000 0.000000 -1.000000
    outer loop
      vertex 33.000000 24.500000 -65.000000
      vertex 12.500000 -34.500000 -65.000000
      vertex 12.500000 35.500000 -65.000000
    endloop
  endfacet
  facet normal 0.000000 -0.000000 -1.000000
    outer loop
      vertex 33.000000 24.500000 -65.000000
      vertex 33.000000 -25.500000 -65.000000
      vertex 12.500000 -34.500000 -65.000000
    endloop
  endfacet
  facet normal 0.000000 -0.000000 -1.000000
    outer loop
      vertex 10.000000 49.500000 -65.000000
      vertex 12.500000 35.500000 -65.000000
      vertex -12.500000 35.500000 -65.000000
    endloop
  endfacet
  facet normal 0.000000 0.000000 -1.000000
    outer loop
      vertex 10.000000 49.500000 -65.000000
      vertex 33.000000 24.500000 -65.000000
      vertex 12.500000 35.500000 -65.000000
    endloop
  endfacet
  facet normal -0.000000 0.000000 -1.000000
    outer loop
      vertex 10.000000 49.500000 -65.000000
      vertex -12.500000 35.500000 -65.000000
      vertex -10.000000 49.500000 -65.000000
    endloop
  endfacet
  facet normal 0.000000 0.000000 -1.000000
    outer loop
      vertex 253.000000 -50.500000 -65.000000
      vertex 10.000000 -50.500000 -65.000000
      vertex 33.000000 -25.500000 -65.000000
    endloop
  endfacet
  facet normal -0.000000 -0.000000 -1.000000
    outer loop
      vertex 253.000000 -25.500000 -65.000000
      vertex 253.000000 -50.500000 -65.000000
      vertex 33.000000 -25.500000 -65.000000
    endloop
  endfacet
  facet normal -0.000000 0.000000 -1.000000
    outer loop
      vertex 10.000000 289.500000 -65.000000
      vertex -10.000000 49.500000 -65.000000
      vertex -10.000000 289.500000 -65.000000
    endloop
  endfacet
  facet normal 0.000000 -0.000000 -1.000000
    outer loop
      vertex 10.000000 289.500000 -65.000000
      vertex 10.000000 49.500000 -65.000000
      vertex -10.000000 49.500000 -65.000000
    endloop
  endfacet
  facet normal 0.000000 -0.000000 -1.000000
    outer loop
      vertex 253.000000 49.500000 -65.000000
      vertex 253.000000 24.500000 -65.000000
      vertex 33.000000 24.500000 -65.000000
    endloop
  endfacet
  facet normal -0.000000 0.000000 -1.000000
    outer loop
      vertex 253.000000 49.500000 -65.000000
      vertex 33.000000 24.500000 -65.000000
      vertex 10.000000 49.500000 -65.000000
    endloop
  endfacet
  facet normal 1.000000 0.000000 -0.000000
    outer loop
      vertex 10.000000 -50.500000 -65.000000
      vertex 10.000000 -50.500000 0.000000
      vertex 10.000000 -290.500000 0.000000
    endloop
  endfacet
  facet normal 1.000000 0.000000 0.000000
    outer loop
      vertex 10.000000 -50.500000 -65.000000
      vertex 10.000000 -290.500000 0.000000
      vertex 10.000000 -290.500000 -65.000000
    endloop
  endfacet
  facet normal -0.000000 0.000000 1.000000
    outer loop
      vertex -10.000000 -50.500000 0.000000
      vertex -32.000000 -25.500000 -0.000000
      vertex -252.000000 -50.500000 -0.000000
    endloop
  endfacet
  facet normal -0.000000 0.000000 1.000000
    outer loop
      vertex -252.000000 -50.500000 -0.000000
      vertex -32.000000 -25.500000 -0.000000
      vertex -252.000000 -25.500000 -0.000000
    endloop
  endfacet
  facet normal -0.000000 0.000000 1.000000
    outer loop
      vertex -10.000000 -50.500000 0.000000
      vertex -12.500000 -34.500000 -0.000000
      vertex -32.000000 -25.500000 -0.000000
    endloop
  endfacet
  facet normal -0.000000 0.000000 1.000000
    outer loop
      vertex 10.000000 -290.500000 0.000000
      vertex 10.000000 -50.500000 0.000000
      vertex -10.000000 -290.500000 0.000000
    endloop
  endfacet
  facet normal -0.000000 0.000000 1.000000
    outer loop
      vertex -10.000000 -290.500000 0.000000
      vertex 10.000000 -50.500000 0.000000
      vertex -10.000000 -50.500000 0.000000
    endloop
  endfacet
  facet normal -0.000000 0.000000 1.000000
    outer loop
      vertex 10.000000 -50.500000 0.000000
      vertex 12.500000 -34.500000 0.000000
      vertex -10.000000 -50.500000 0.000000
    endloop
  endfacet
  facet normal -0.000000 0.000000 1.000000
    outer loop
      vertex -10.000000 -50.500000 0.000000
      vertex 12.500000 -34.500000 0.000000
      vertex -12.500000 -34.500000 -0.000000
    endloop
  endfacet
  facet normal -0.000000 0.000000 1.000000
    outer loop
      vertex -252.000000 24.500000 -0.000000
      vertex -32.000000 24.500000 -0.000000
      vertex -252.000000 49.500000 -0.000000
    endloop
  endfacet
  facet normal -0.000000 0.000000 1.000000
    outer loop
      vertex -12.500000 -34.500000 -0.000000
      vertex -32.000000 24.500000 -0.000000
      vertex -32.000000 -25.500000 -0.000000
    endloop
  endfacet
  facet normal -0.000000 0.000000 1.000000
    outer loop
      vertex 10.000000 -50.500000 0.000000
      vertex 33.000000 -25.500000 0.000000
      vertex 12.500000 -34.500000 0.000000
    endloop
  endfacet
  facet normal -0.000000 0.000000 1.000000
    outer loop
      vertex -12.500000 -34.500000 -0.000000
      vertex -12.500000 35.500000 -0.000000
      vertex -32.000000 24.500000 -0.000000
    endloop
  endfacet
  facet normal -0.000000 0.000000 1.000000
    outer loop
      vertex -32.000000 24.500000 -0.000000
      vertex -10.000000 49.500000 -0.000000
      vertex -252.000000 49.500000 -0.000000
    endloop
  endfacet
  facet normal -0.000000 0.000000 1.000000
    outer loop
      vertex -12.500000 35.500000 -0.000000
      vertex -10.000000 49.500000 -0.000000
      vertex -32.000000 24.500000 -0.000000
    endloop
  endfacet
  facet normal -0.000000 0.000000 1.000000
    outer loop
      vertex 12.500000 -34.500000 0.000000
      vertex 33.000000 24.500000 -0.000000
      vertex 12.500000 35.500000 -0.000000
    endloop
  endfacet
  facet normal -0.000000 0.000000 1.000000
    outer loop
      vertex 33.000000 -25.500000 0.000000
      vertex 33.000000 24.500000 -0.000000
      vertex 12.500000 -34.500000 0.000000
    endloop
  endfacet
  facet normal -0.000000 0.000000 1.000000
    outer loop
      vertex 12.500000 35.500000 -0.000000
      vertex 10.000000 49.500000 -0.000000
      vertex -12.500000 35.500000 -0.000000
    endloop
  endfacet
  facet normal -0.000000 0.000000 1.000000
    outer loop
      vertex 33.000000 24.500000 -0.000000
      vertex 10.000000 49.500000 -0.000000
      vertex 12.500000 35.500000 -0.000000
    endloop
  endfacet
  facet normal -0.000000 0.000000 1.000000
    outer loop
      vertex -12.500000 35.500000 -0.000000
      vertex 10.000000 49.500000 -0.000000
      vertex -10.000000 49.500000 -0.000000
    endloop
  endfacet
  facet normal -0.000000 0.000000 1.000000
    outer loop
      vertex 10.000000 -50.500000 0.000000
      vertex 253.000000 -50.500000 0.000000
      vertex 33.000000 -25.500000 0.000000
    endloop
  endfacet
  facet normal -0.000000 0.000000 1.000000
    outer loop
      vertex 253.000000 -50.500000 0.000000
      vertex 253.000000 -25.500000 0.000000
      vertex 33.000000 -25.500000 0.000000
    endloop
  endfacet
  facet normal -0.000000 0.000000 1.000000
    outer loop
      vertex -10.000000 49.500000 -0.000000
      vertex 10.000000 289.500000 -0.000000
      vertex -10.000000 289.500000 -0.000000
    endloop
  endfacet
  facet normal -0.000000 0.000000 1.000000
    outer loop
      vertex 10.000000 49.500000 -0.000000
      vertex 10.000000 289.500000 -0.000000
      vertex -10.000000 49.500000 -0.000000
    endloop
  endfacet
  facet normal -0.000000 0.000000 1.000000
    outer loop
      vertex 253.000000 24.500000 0.000000
      vertex 253.000000 49.500000 0.000000
      vertex 33.000000 24.500000 -0.000000
    endloop
  endfacet
  facet normal -0.000000 0.000000 1.000000
    outer loop
      vertex 33.000000 24.500000 -0.000000
      vertex 253.000000 49.500000 0.000000
      vertex 10.000000 49.500000 -0.000000
    endloop
  endfacet
  facet normal -1.000000 -0.000000 -0.000000
    outer loop
      vertex -10.000000 -50.500000 0.000000
      vertex -10.000000 -50.500000 -65.000000
      vertex -10.000000 -290.500000 0.000000
    endloop
  endfacet
  facet normal -1.000000 0.000000 0.000000
    outer loop
      vertex -10.000000 -290.500000 0.000000
      vertex -10.000000 -50.500000 -65.000000
      vertex -10.000000 -290.500000 -65.000000
    endloop
  endfacet
  facet normal 0.000000 -1.000000 -0.000000
    outer loop
      vertex 253.000000 -50.500000 0.000000
      vertex 10.000000 -50.500000 0.000000
      vertex 253.000000 -50.500000 -65.000000
    endloop
  endfacet
  facet normal 0.000000 -1.000000 0.000000
    outer loop
      vertex 10.000000 -50.500000 0.000000
      vertex 10.000000 -50.500000 -65.000000
      vertex 253.000000 -50.500000 -65.000000
    endloop
  endfacet
  facet normal 1.000000 0.000000 -0.000000
    outer loop
      vertex 253.000000 -25.500000 -65.000000
      vertex 253.000000 -25.500000 0.000000
      vertex 253.000000 -50.500000 0.000000
    endloop
  endfacet
  facet normal 1.000000 0.000000 0.000000
    outer loop
      vertex 253.000000 -25.500000 -65.000000
      vertex 253.000000 -50.500000 0.000000
      vertex 253.000000 -50.500000 -65.000000
    endloop
  endfacet
  facet normal 0.000000 1.000000 0.000000
    outer loop
      vertex 33.000000 -25.500000 -65.000000
      vertex 33.000000 -25.500000 0.000000
      vertex 253.000000 -25.500000 0.000000
    endloop
  endfacet
  facet normal 0.000000 1.000000 0.000000
    outer loop
      vertex 33.000000 -25.500000 -65.000000
      vertex 253.000000 -25.500000 0.000000
      vertex 253.000000 -25.500000 -65.000000
    endloop
  endfacet
  facet normal 1.000000 0.000000 -0.000000
    outer loop
      vertex 33.000000 24.500000 -65.000000
      vertex 33.000000 24.500000 -0.000000
      vertex 33.000000 -25.500000 0.000000
    endloop
  endfacet
  facet normal 1.000000 0.000000 0.000000
    outer loop
      vertex 33.000000 24.500000 -65.000000
      vertex 33.000000 -25.500000 0.000000
      vertex 33.000000 -25.500000 -65.000000
    endloop
  endfacet
  facet normal 0.000000 -1.000000 0.000000
    outer loop
      vertex 33.000000 24.500000 -0.000000
      vertex 33.000000 24.500000 -65.000000
      vertex 253.000000 24.500000 0.000000
    endloop
  endfacet
  facet normal 0.000000 -1.000000 -0.000000
    outer loop
      vertex 253.000000 24.500000 0.000000
      vertex 33.000000 24.500000 -65.000000
      vertex 253.000000 24.500000 -65.000000
    endloop
  endfacet
  facet normal 1.000000 0.000000 -0.000000
    outer loop
      vertex 253.000000 49.500000 -65.000000
      vertex 253.000000 49.500000 0.000000
      vertex 253.000000 24.500000 0.000000
    endloop
  endfacet
  facet normal 1.000000 0.000000 0.000000
    outer loop
      vertex 253.000000 49.500000 -65.000000
      vertex 253.000000 24.500000 0.000000
      vertex 253.000000 24.500000 -65.000000
    endloop
  endfacet
  facet normal -0.000000 1.000000 0.000000
    outer loop
      vertex 10.000000 49.500000 -0.000000
      vertex 253.000000 49.500000 0.000000
      vertex 253.000000 49.500000 -65.000000
    endloop
  endfacet
  facet normal 0.000000 1.000000 0.000000
    outer loop
      vertex 10.000000 49.500000 -65.000000
      vertex 10.000000 49.500000 -0.000000
      vertex 253.000000 49.500000 -65.000000
    endloop
  endfacet
  facet normal 1.000000 0.000000 -0.000000
    outer loop
      vertex 10.000000 289.500000 -65.000000
      vertex 10.000000 289.500000 -0.000000
      vertex 10.000000 49.500000 -0.000000
    endloop
  endfacet
  facet normal 1.000000 0.000000 0.000000
    outer loop
      vertex 10.000000 289.500000 -65.000000
      vertex 10.000000 49.500000 -0.000000
      vertex 10.000000 49.500000 -65.000000
    endloop
  endfacet
  facet normal 0.000000 1.000000 0.000000
    outer loop
      vertex -10.000000 289.500000 -65.000000
      vertex -10.000000 289.500000 -0.000000
      vertex 10.000000 289.500000 -0.000000
    endloop
  endfacet
  facet normal 0.000000 1.000000 0.000000
    outer loop
      vertex -10.000000 289.500000 -65.000000
      vertex 10.000000 289.500000 -0.000000
      vertex 10.000000 289.500000 -65.000000
    endloop
  endfacet
  facet normal -1.000000 -0.000000 -0.000000
    outer loop
      vertex -10.000000 289.500000 -0.000000
      vertex -10.000000 289.500000 -65.000000
      vertex -10.000000 49.500000 -0.000000
    endloop
  endfacet
  facet normal -1.000000 0.000000 0.000000
    outer loop
      vertex -10.000000 49.500000 -0.000000
      vertex -10.000000 289.500000 -65.000000
      vertex -10.000000 49.500000 -65.000000
    endloop
  endfacet
  facet normal -0.000000 1.000000 0.000000
    outer loop
      vertex -252.000000 49.500000 -0.000000
      vertex -10.000000 49.500000 -0.000000
      vertex -10.000000 49.500000 -65.000000
    endloop
  endfacet
  facet normal 0.000000 1.000000 0.000000
    outer loop
      vertex -252.000000 49.500000 -65.000000
      vertex -252.000000 49.500000 -0.000000
      vertex -10.000000 49.500000 -65.000000
    endloop
  endfacet
  facet normal -1.000000 -0.000000 -0.000000
    outer loop
      vertex -252.000000 49.500000 -0.000000
      vertex -252.000000 49.500000 -65.000000
      vertex -252.000000 24.500000 -0.000000
    endloop
  endfacet
  facet normal -1.000000 0.000000 0.000000
    outer loop
      vertex -252.000000 24.500000 -0.000000
      vertex -252.000000 49.500000 -65.000000
      vertex -252.000000 24.500000 -65.000000
    endloop
  endfacet
  facet normal 0.000000 -1.000000 0.000000
    outer loop
      vertex -252.000000 24.500000 -0.000000
      vertex -252.000000 24.500000 -65.000000
      vertex -32.000000 24.500000 -0.000000
    endloop
  endfacet
  facet normal 0.000000 -1.000000 -0.000000
    outer loop
      vertex -32.000000 24.500000 -0.000000
      vertex -252.000000 24.500000 -65.000000
      vertex -32.000000 24.500000 -65.000000
    endloop
  endfacet
  facet normal -1.000000 -0.000000 -0.000000
    outer loop
      vertex -32.000000 24.500000 -0.000000
      vertex -32.000000 24.500000 -65.000000
      vertex -32.000000 -25.500000 -0.000000
    endloop
  endfacet
  facet normal -1.000000 0.000000 0.000000
    outer loop
      vertex -32.000000 -25.500000 -0.000000
      vertex -32.000000 24.500000 -65.000000
      vertex -32.000000 -25.500000 -65.000000
    endloop
  endfacet
  facet normal 0.000000 1.000000 0.000000
    outer loop
      vertex -252.000000 -25.500000 -65.000000
      vertex -252.000000 -25.500000 -0.000000
      vertex -32.000000 -25.500000 -0.000000
    endloop
  endfacet
  facet normal 0.000000 1.000000 0.000000
    outer loop
      vertex -252.000000 -25.500000 -65.000000
      vertex -32.000000 -25.500000 -0.000000
      vertex -32.000000 -25.500000 -65.000000
    endloop
  endfacet
  facet normal -1.000000 -0.000000 -0.000000
    outer loop
      vertex -252.000000 -25.500000 -0.000000
      vertex -252.000000 -25.500000 -65.000000
      vertex -252.000000 -50.500000 -0.000000
    endloop
  endfacet
  facet normal -1.000000 0.000000 0.000000
    outer loop
      vertex -252.000000 -50.500000 -0.000000
      vertex -252.000000 -25.500000 -65.000000
      vertex -252.000000 -50.500000 -65.000000
    endloop
  endfacet
  facet normal 0.000000 -1.000000 -0.000000
    outer loop
      vertex -10.000000 -50.500000 0.000000
      vertex -252.000000 -50.500000 -0.000000
      vertex -10.000000 -50.500000 -65.000000
    endloop
  endfacet
  facet normal 0.000000 -1.000000 0.000000
    outer loop
      vertex -252.000000 -50.500000 -0.000000
      vertex -252.000000 -50.500000 -65.000000
      vertex -10.000000 -50.500000 -65.000000
    endloop
  endfacet
  facet normal 1.000000 0.000000 -0.000000
    outer loop
      vertex -12.500000 35.500000 -65.000000
      vertex -12.500000 35.500000 -0.000000
      vertex -12.500000 -34.500000 -0.000000
    endloop
  endfacet
  facet normal 1.000000 0.000000 0.000000
    outer loop
      vertex -12.500000 35.500000 -65.000000
      vertex -12.500000 -34.500000 -0.000000
      vertex -12.500000 -34.500000 -65.000000
    endloop
  endfacet
  facet normal 0.000000 -1.000000 0.000000
    outer loop
      vertex -12.500000 35.500000 -0.000000
      vertex -12.500000 35.500000 -65.000000
      vertex 12.500000 35.500000 -0.000000
    endloop
  endfacet
  facet normal 0.000000 -1.000000 -0.000000
    outer loop
      vertex 12.500000 35.500000 -0.000000
      vertex -12.500000 35.500000 -65.000000
      vertex 12.500000 35.500000 -65.000000
    endloop
  endfacet
  facet normal -1.000000 -0.000000 -0.000000
    outer loop
      vertex 12.500000 35.500000 -0.000000
      vertex 12.500000 35.500000 -65.000000
      vertex 12.500000 -34.500000 0.000000
    endloop
  endfacet
  facet normal -1.000000 0.000000 0.000000
    outer loop
      vertex 12.500000 -34.500000 0.000000
      vertex 12.500000 35.500000 -65.000000
      vertex 12.500000 -34.500000 -65.000000
    endloop
  endfacet
  facet normal 0.000000 1.000000 0.000000
    outer loop
      vertex -12.500000 -34.500000 -65.000000
      vertex -12.500000 -34.500000 -0.000000
      vertex 12.500000 -34.500000 0.000000
    endloop
  endfacet
  facet normal 0.000000 1.000000 0.000000
    outer loop
      vertex -12.500000 -34.500000 -65.000000
      vertex 12.500000 -34.500000 0.000000
      vertex 12.500000 -34.500000 -65.000000
    endloop
  endfacet
endsolid Mesh
